<svg width="98" height="13" viewBox="0 0 98 13" fill="none" xmlns="http://www.w3.org/2000/svg">
<path opacity="0.7" d="M6.80781 7.17969H2.22969V12H0.253124V0.625H7.47969V2.21875H2.22969V5.60156H6.80781V7.17969ZM18.8984 6.92188H14.2266V10.4219H19.6875V12H12.25V0.625H19.6328V2.21875H14.2266V5.35938H18.8984V6.92188ZM30.8641 9.35156H26.4578L25.5359 12H23.4812L27.7781 0.625H29.5516L33.8562 12H31.7937L30.8641 9.35156ZM27.0125 7.75781H30.3094L28.6609 3.03906L27.0125 7.75781ZM45.6344 2.21875H42.0875V12H40.1266V2.21875H36.6109V0.625H45.6344V2.21875ZM58.6547 0.625V8.22656C58.6547 9.4349 58.2667 10.3932 57.4906 11.1016C56.7198 11.8047 55.6911 12.1562 54.4047 12.1562C53.1026 12.1562 52.0687 11.8099 51.3031 11.1172C50.5375 10.4193 50.1547 9.45312 50.1547 8.21875V0.625H52.1234V8.23438C52.1234 8.99479 52.3161 9.57552 52.7016 9.97656C53.087 10.3776 53.6547 10.5781 54.4047 10.5781C55.9255 10.5781 56.6859 9.77604 56.6859 8.17188V0.625H58.6547ZM68.1516 7.61719H65.9484V12H63.9719V0.625H67.9719C69.2844 0.625 70.2974 0.919271 71.0109 1.50781C71.7245 2.09635 72.0812 2.94792 72.0812 4.0625C72.0812 4.82292 71.8964 5.46094 71.5266 5.97656C71.162 6.48698 70.6516 6.88021 69.9953 7.15625L72.55 11.8984V12H70.4328L68.1516 7.61719ZM65.9484 6.03125H67.9797C68.6464 6.03125 69.1672 5.86458 69.5422 5.53125C69.9172 5.19271 70.1047 4.73177 70.1047 4.14844C70.1047 3.53906 69.9302 3.06771 69.5812 2.73438C69.2375 2.40104 68.7219 2.22917 68.0344 2.21875H65.9484V6.03125ZM83.8047 6.92188H79.1328V10.4219H84.5938V12H77.1562V0.625H84.5391V2.21875H79.1328V5.35938H83.8047V6.92188ZM95.3484 9.07031C95.3484 8.57031 95.1714 8.1849 94.8172 7.91406C94.4682 7.64323 93.8354 7.36979 92.9187 7.09375C92.0021 6.81771 91.2729 6.51042 90.7312 6.17188C89.6948 5.52083 89.1766 4.67188 89.1766 3.625C89.1766 2.70833 89.549 1.95312 90.2937 1.35938C91.0437 0.765625 92.0151 0.46875 93.2078 0.46875C93.9995 0.46875 94.7052 0.614583 95.325 0.90625C95.9448 1.19792 96.4318 1.61458 96.7859 2.15625C97.1401 2.69271 97.3172 3.28906 97.3172 3.94531H95.3484C95.3484 3.35156 95.1609 2.88802 94.7859 2.55469C94.4161 2.21615 93.8849 2.04688 93.1922 2.04688C92.5464 2.04688 92.0437 2.1849 91.6844 2.46094C91.3302 2.73698 91.1531 3.1224 91.1531 3.61719C91.1531 4.03385 91.3458 4.38281 91.7312 4.66406C92.1167 4.9401 92.7521 5.21094 93.6375 5.47656C94.5229 5.73698 95.2339 6.03646 95.7703 6.375C96.3068 6.70833 96.7 7.09375 96.95 7.53125C97.2 7.96354 97.325 8.47135 97.325 9.05469C97.325 10.0026 96.9604 10.7578 96.2312 11.3203C95.5073 11.8776 94.5229 12.1562 93.2781 12.1562C92.4552 12.1562 91.6974 12.0052 91.0047 11.7031C90.3172 11.3958 89.7807 10.974 89.3953 10.4375C89.0151 9.90104 88.825 9.27604 88.825 8.5625H90.8016C90.8016 9.20833 91.0151 9.70833 91.4422 10.0625C91.8693 10.4167 92.4812 10.5938 93.2781 10.5938C93.9656 10.5938 94.4812 10.4557 94.825 10.1797C95.174 9.89844 95.3484 9.52865 95.3484 9.07031Z" fill="#DC780B"/>
</svg>
