<svg width="21" height="21" viewBox="0 0 21 21" fill="none" xmlns="http://www.w3.org/2000/svg">
<path d="M10.5 21C16.299 21 21 16.299 21 10.5C21 4.70101 16.299 0 10.5 0C4.70101 0 0 4.70101 0 10.5C0 16.299 4.70101 21 10.5 21Z" fill="#6C27B3"/>
<path d="M15.3689 5.452C14.1144 5.61081 12.8063 5.60527 11.4899 5.47993C9.65146 5.33851 6.96461 4.49002 5.97469 6.187C4.38444 8.90371 5.16878 12.3818 5.53935 15.4597L11.0657 20.9849C16.4136 20.7009 20.6997 16.4154 20.9845 11.0677L15.3689 5.452Z" fill="#501A96"/>
<path d="M12.9291 4.48999H8.07057C6.09608 4.48999 4.48975 6.09633 4.48975 8.07082V12.9293C4.48975 14.9037 6.09608 16.5102 8.07061 16.5102H12.9291C14.9035 16.5102 16.51 14.9038 16.51 12.9293V8.07082C16.5099 6.09633 14.9036 4.48999 12.9291 4.48999ZM15.3007 12.9294C15.3007 14.2392 14.2389 15.301 12.9291 15.301H8.07061C6.76082 15.301 5.69901 14.2392 5.69901 12.9294V8.07086C5.69901 6.76107 6.76082 5.69921 8.07061 5.69921H12.9291C14.2389 5.69921 15.3007 6.76111 15.3007 8.07086V12.9294Z" fill="white"/>
<path d="M10.5 7.39136C8.78581 7.39136 7.39111 8.78605 7.39111 10.5003C7.39111 12.2143 8.78581 13.609 10.5 13.609C12.2142 13.609 13.6088 12.2145 13.6088 10.5003C13.6088 8.78605 12.2142 7.39136 10.5 7.39136ZM10.5 12.3998C9.45088 12.3998 8.60034 11.5494 8.60034 10.5003C8.60034 9.45108 9.45088 8.60058 10.5 8.60058C11.5492 8.60058 12.3996 9.45104 12.3996 10.5003C12.3996 11.5494 11.5492 12.3998 10.5 12.3998Z" fill="white"/>
<path d="M14.3601 7.41464C14.3601 7.82603 14.0265 8.15961 13.6151 8.15961C13.2037 8.15961 12.8701 7.82603 12.8701 7.41464C12.8701 7.00322 13.2037 6.66968 13.6151 6.66968C14.0266 6.66968 14.3601 7.00314 14.3601 7.41464Z" fill="#D1D1D1"/>
<path d="M12.9294 4.48999H10.4766V5.69921H12.9294C14.2392 5.69921 15.301 6.76111 15.301 8.07086V12.9294C15.301 14.2392 14.2392 15.301 12.9294 15.301H10.4766V16.5102H12.9294C14.9038 16.5102 16.5102 14.9038 16.5102 12.9293V8.07082C16.5102 6.09633 14.9038 4.48999 12.9294 4.48999Z" fill="#D1D1D1"/>
<path d="M10.5001 7.39136C10.4922 7.39136 10.4845 7.39193 10.4766 7.39193V8.60115C10.4844 8.60107 10.4922 8.60058 10.5001 8.60058C11.5492 8.60058 12.3997 9.45104 12.3997 10.5003C12.3997 11.5494 11.5493 12.3998 10.5001 12.3998C10.4922 12.3998 10.4844 12.3993 10.4766 12.3992V13.6085C10.4845 13.6085 10.4922 13.609 10.5001 13.609C12.2143 13.609 13.6089 12.2144 13.6089 10.5003C13.6089 8.78605 12.2143 7.39136 10.5001 7.39136Z" fill="#D1D1D1"/>
</svg>
